<?xml version="1.0" encoding="UTF-8"?>
<svg id="Layer_2" xmlns="http://www.w3.org/2000/svg" xmlns:xlink="http://www.w3.org/1999/xlink" version="1.1" viewBox="0 0 507.7 96">
  <!-- Generator: Adobe Illustrator 29.7.1, SVG Export Plug-In . SVG Version: 2.1.1 Build 8)  -->
  <defs>
    <style>
      .st0 {
        fill: url(#linear-gradient2);
      }

      .st1 {
        fill: url(#linear-gradient1);
      }

      .st2 {
        fill: url(#linear-gradient3);
      }

      .st3 {
        fill: url(#linear-gradient4);
      }

      .st4 {
        fill: url(#linear-gradient);
      }

      .st5 {
        fill: #1fb6a6;
      }

      .st6 {
        fill: #0077b6;
      }
    </style>
    <linearGradient id="linear-gradient" x1="2.9" y1="52.2" x2="66.6" y2="52.2" gradientTransform="translate(0 98) scale(1 -1)" gradientUnits="userSpaceOnUse">
      <stop offset="0" stop-color="#1fb6a6"/>
      <stop offset="1" stop-color="#0077b6"/>
    </linearGradient>
    <linearGradient id="linear-gradient1" x1="31.9" y1="50" x2="80.1" y2="50" gradientTransform="translate(0 98) scale(1 -1)" gradientUnits="userSpaceOnUse">
      <stop offset="0" stop-color="#1fb6a6"/>
      <stop offset="1" stop-color="#0077b6"/>
    </linearGradient>
    <linearGradient id="linear-gradient2" x1="33.9" y1="55.6" x2="49.2" y2="55.6" gradientTransform="translate(0 98) scale(1 -1)" gradientUnits="userSpaceOnUse">
      <stop offset="0" stop-color="#1fb6a6"/>
      <stop offset="1" stop-color="#0077b6"/>
    </linearGradient>
    <linearGradient id="linear-gradient3" x1="26.5" y1="50.3" x2="56.5" y2="50.3" gradientTransform="translate(0 98) scale(1 -1)" gradientUnits="userSpaceOnUse">
      <stop offset="0" stop-color="#1fb6a6"/>
      <stop offset="1" stop-color="#0077b6"/>
    </linearGradient>
    <linearGradient id="linear-gradient4" x1="35.5" y1="26.5" x2="47.4" y2="26.5" gradientTransform="translate(0 98) scale(1 -1)" gradientUnits="userSpaceOnUse">
      <stop offset="0" stop-color="#1fb6a6"/>
      <stop offset="1" stop-color="#0077b6"/>
    </linearGradient>
  </defs>
  <g id="Layer_1-2">
    <g>
      <g>
        <path class="st5" d="M147.2,46.3c2.1-2.6,3.1-5.9,3.1-9.8s-.6-6-1.9-8.2-2.9-4-5-5.3c-2.1-1.4-4.4-2.3-7-2.9s-5.3-.9-8.1-.9h-21.8v57.3h13.5v-22.7h4.7l12.4,22.7h16.2l-15-24.5c3.7-1.1,6.6-3,8.7-5.7h0ZM135.8,40.3c-.6.9-1.4,1.6-2.4,2.1s-2.1.8-3.2,1-2.4.3-3.5.3h-6.6v-13.4h7.4c1,0,2.1,0,3.2.2s2.1.5,3,.9c.9.5,1.6,1.1,2.2,1.9.6.8.9,1.9.9,3.3s-.3,2.6-.9,3.6h0Z"/>
        <path class="st5" d="M196.1,40.2c-1.2-1.5-2.7-2.8-4.5-3.8s-4.2-1.5-6.9-1.5-5.2.6-7.2,1.9-3.4,2.7-4.4,4.3h-.2v-23h-13.3v58.2h13.3v-21.8c0-2.4.6-4.5,1.9-6.1,1.2-1.6,3-2.5,5.3-2.5s2.2.2,2.9.7,1.4,1.1,1.8,1.9.8,1.7.9,2.7c.2,1,.2,2.1.2,3.2v21.8h13.4v-24.9c0-2-.3-4-.8-6-.5-2-1.4-3.8-2.5-5.3h0Z"/>
        <path class="st5" d="M243.7,40.7c-1.8-1.9-3.9-3.3-6.4-4.3s-5.2-1.5-8.2-1.5-5.9.5-8.6,1.5c-2.6,1-4.9,2.5-6.9,4.3-2,1.9-3.5,4.1-4.6,6.8-1.1,2.7-1.7,5.7-1.7,8.9s.6,6.4,1.7,9.1,2.8,4.9,4.8,6.7c2,1.8,4.4,3.2,7.1,4.1,2.7.9,5.6,1.4,8.6,1.4s7.7-.7,10.8-2.2,5.6-3.6,7.5-6.3l-9.2-5.8c-.9,1.2-2.1,2.2-3.6,3-1.5.8-3.2,1.2-5.3,1.2s-2.3-.2-3.4-.6-2.1-.9-3-1.6c-.9-.7-1.6-1.5-2.2-2.4-.6-.9-.9-1.9-1-3.1h29.2c0-.5,0-1,0-1.5v-1.6c0-3.5-.5-6.5-1.5-9.2-1-2.7-2.4-5-4.2-6.9h0ZM220.1,51.7c0-1,.3-2,.8-3,.5-.9,1.1-1.8,1.9-2.5s1.8-1.2,2.8-1.7c1.1-.4,2.3-.6,3.6-.6,2.6,0,4.6.8,5.9,2.3,1.3,1.5,2,3.3,2,5.4h-17.1,0Z"/>
        <path class="st5" d="M292,46.6c-.7-2.7-1.7-4.9-3.2-6.6-1.5-1.8-3.4-3-5.7-3.9-2.4-.8-5.2-1.2-8.6-1.2s-6.5.6-9.7,1.7-5.9,2.8-8.3,5.1l6.7,7.2c1.2-1.1,2.7-2.1,4.5-2.9s3.6-1.2,5.5-1.2,3.8.5,5.2,1.4c1.4.9,2.1,2.4,2.1,4.4v.7c-2.9,0-5.9.2-9,.5-3.1.3-5.9,1-8.4,1.9s-4.6,2.3-6.1,4.1c-1.6,1.8-2.4,4.1-2.4,7s.5,4.4,1.4,6c.9,1.6,2.1,2.9,3.5,3.9,1.4,1,3,1.7,4.7,2.1s3.4.7,5,.7c2.4,0,4.7-.5,6.8-1.4s3.6-2.2,4.6-3.9h.2v4.3h12.1v-20.3c0-3.7-.3-6.8-1-9.5h0ZM280.9,60.3c0,2.5-.7,4.5-2.1,6-1.4,1.5-3.5,2.2-6.2,2.2s-1.3,0-2-.2c-.7-.1-1.3-.4-1.9-.7-.5-.3-1-.8-1.3-1.3-.4-.5-.5-1.2-.5-1.9,0-1.2.4-2.1,1.1-2.9s1.7-1.3,2.9-1.7,2.5-.6,4-.8c1.5-.1,3-.2,4.4-.2h1.7v1.4h0Z"/>
      </g>
      <g>
        <polygon class="st6" points="348.2 50.1 322.3 50.1 322.3 29.5 317.5 29.5 317.5 77 322.3 77 322.3 54.5 348.2 54.5 348.2 77 353.1 77 353.1 29.5 348.2 29.5 348.2 50.1"/>
        <path class="st6" d="M390.2,49.4c-1.3-1.4-2.8-2.5-4.7-3.4-1.9-.8-4.1-1.2-6.5-1.2s-4.3.4-6.2,1.2c-1.9.8-3.6,2-5,3.5-1.4,1.5-2.6,3.2-3.4,5.2-.8,2-1.2,4.2-1.2,6.6s.4,4.6,1.2,6.6c.8,2,2,3.8,3.4,5.2s3.1,2.6,5.1,3.5c2,.8,4.2,1.2,6.5,1.2s5-.5,7.3-1.5c2.3-1,4.3-2.7,6.2-5.1l-3.4-2.7c-.9,1.4-2.2,2.7-3.9,3.8s-3.8,1.6-6.1,1.6-3.1-.3-4.5-.9c-1.4-.6-2.6-1.4-3.6-2.5-1-1-1.8-2.2-2.4-3.6-.6-1.4-.9-2.9-.9-4.4h26c0-.4,0-.8,0-1.1v-1c0-2.1-.3-4.2-1-6-.6-1.9-1.6-3.5-2.9-4.9ZM368,58.9c0-1.3.4-2.6,1-3.9.6-1.2,1.4-2.3,2.3-3.3,1-1,2.1-1.7,3.4-2.3s2.7-.8,4.2-.8c3.3,0,5.8,1,7.6,2.9,1.8,1.9,2.7,4.4,2.9,7.4h-21.4Z"/>
        <path class="st6" d="M427.5,69.9v-13.8c0-1.9-.3-3.6-.9-5-.6-1.4-1.5-2.6-2.6-3.6-1.1-.9-2.4-1.6-3.9-2.1s-3.1-.7-4.8-.7c-2.7,0-5.1.4-7.2,1.3-2.1.9-3.8,1.9-5.1,3.2l2.6,3c1.1-1.1,2.5-2,4.1-2.7,1.6-.7,3.4-1,5.2-1,2.7,0,4.8.7,6.2,2,1.4,1.3,2.1,3.4,2.1,6.1v1c-2.9,0-5.6.1-8.3.3-2.7.2-5,.7-7.1,1.3-2.1.7-3.7,1.8-4.9,3.2s-1.8,3.3-1.8,5.8.3,3.2,1,4.4c.7,1.2,1.6,2.2,2.6,3,1.1.8,2.2,1.3,3.5,1.6,1.3.3,2.5.5,3.7.5,2.6,0,4.7-.5,6.5-1.4,1.8-.9,3.4-2.4,4.9-4.5h.1c0,.9,0,1.7.1,2.6,0,.9.2,1.7.3,2.5h4.1c-.2-.9-.3-2-.4-3.3,0-1.3-.1-2.6-.1-3.8ZM423.2,63.6c0,1.4-.2,2.7-.7,4-.4,1.3-1.1,2.4-1.9,3.3-.9,1-1.9,1.7-3.2,2.3-1.3.6-2.7.8-4.3.8s-1.8-.1-2.7-.3c-.9-.2-1.7-.5-2.4-1-.7-.5-1.3-1.1-1.7-1.8-.4-.8-.6-1.7-.6-2.8s.5-2.7,1.5-3.6c1-.9,2.2-1.6,3.8-2,1.5-.5,3.3-.8,5.2-.9,1.9-.2,3.8-.2,5.7-.2h1.3v2.3Z"/>
        <rect class="st6" x="439.4" y="26.2" width="4.6" height="50.8"/>
        <path class="st6" d="M461.5,36.7h-4.6v8.9h-6.5v3.8h6.5v19.6c0,1.7.3,3.2.8,4.2.5,1.1,1.2,1.9,2,2.6.8.6,1.7,1.1,2.6,1.3s1.8.3,2.7.3,2,0,2.9-.2c.9-.2,1.7-.4,2.5-.7l-.2-4c-.6.3-1.3.6-2,.7-.7.2-1.4.3-2,.3s-1.3,0-1.9-.2c-.6-.2-1.1-.4-1.5-.9-.4-.4-.8-1-1-1.8-.2-.8-.3-1.7-.3-2.9v-18.3h8.9v-3.8h-8.9v-8.9Z"/>
        <path class="st6" d="M501.8,48.3c-2-2.4-5-3.6-9-3.6s-4.3.5-6.3,1.6c-2,1.1-3.4,2.5-4.2,4.4h-.1v-24.5h-4.6v50.8h4.6v-16.1c0-2.1.3-3.9.8-5.5s1.3-2.8,2.1-3.8c.9-1,1.9-1.8,3.1-2.2,1.1-.5,2.3-.7,3.5-.7s3,.3,4.1.8,2,1.3,2.6,2.2c.6,1,1.1,2.1,1.4,3.5.3,1.3.4,2.8.4,4.5v17.4h4.6v-19.3c0-3.9-1-7-3-9.4Z"/>
      </g>
      <g>
        <path class="st4" d="M36.1,23.6c0,0-.3.8-.4,1.1-1,1.9-2.7,3-3,5.2-.1.7,0,2.2-.3,2.7-.5.9-1.4.2-2,.5-.7,2.9-2.9-1-2.9,2.7s-1.2,1.9-2.8,1.6c-1.4-.3-2.3-1.9-3.3-2.5-1.5-.9-1.9,1.9-2,2.9-.5,6.8,4.5,12.1,9.8,15.4,9.5,5.9,24,5.9,34.1,1.3,1-.5,1.9-.8,3-1.2.6-.3.4.5.2.7-.1.1-1.6,2.6-1.8,2.9-3,5.3-8.4,10-14.6,11.1-2,.3-4.3.4-6.3.4-.7,0-3.3,0-4.8-.2-2-.2-3.2-.3-5.8-1.1-.4-.1-.7-.4-.6-.8.3-.5,1.5,0,2,0,3.2.2,5.1.2,8.3-.5.9-.2,3.4-.7,4-1.8-1.3.2-1.4.3-2.9.5-3.1.5-4.5.7-7.8.3-13-1.3-20.2-8.6-24-18.9-.4-1-1-1.8-1.4-2.9,0,1,.1,2,.4,3,.8,3,2,6.3,3.5,9,5.4,10,15.1,16.4,24.3,22.6,1.2.7,0,.9-.4,1.2-1,.8-2.5,1.5-3.6,2.2-.6.4-2.4,1.9-3,1.9-.2,0-.4,0-.5-.2-1.1-.5-2.9-1.7-4-2.3C13.5,72.1-.2,59.1,3.5,41.2c1.1-5.1,3.2-8.4,5.6-12.9,3.6-6.9,3.2-15,11.4-18.7,3.6-1.6,7.8-1.3,11.2.7,2.4,1.4,7,5.9,7.6,8.6.3,1.8.1,3.7-1.8,4.3-.3.1-1.2.1-1.3.3h0Z"/>
        <path class="st1" d="M70.6,46.5c-.7,2-1.2,2.9-3,3.9-4.7,2.7-9,4.1-14.5,4.8-1.5.2-1.4.5-5.5.6-.2,0-1.6-.3-1.7-.3,0-.2.2-.4.3-.5,4.7-.9,9.5-3,13-6.2,3.1-2.8,5.6-8.8,4.5-12.9-1-3.7-2.8-.2-4.2.6-2.1,1.2-2.9-.4-4.2-1.6-.3-.3-.7-.5-1-.8-.3-.3-.6-.8-.8-1-.8-.5-2.3.4-2.5-.9-.2-1.2,0-2.6-.6-3.9-.3-.8-1.1-1.2-1.5-1.8-.7-.8-1.3-1.5-1.9-2.2-.3-.4-2.2-2.3-1.7-2.8.8,0,1.5.8,2.2,1.2,5.8,3.6,12.7-.6,17.5,5.9.8,1,1.7,2.7,2.2,3.9.2.5.3,1.6.6,2,.2.2.2,0,.3,0,.3-.6.2-1.2,0-1.8-.9-3.2-3.2-6.5-6.2-8-5.2-2.4-11.4,0-15.7-4.7-1.4-1.6-1.6-2.6-.3-4.3,4-5.2,9.8-9.2,16.6-6.3,8.3,3.5,8.1,11.6,11.6,18.5,2.1,4.1,4.5,7.3,5.6,12,4.2,18.9-9.3,31.5-23.7,40.6-6.3,4-5.3,2.9-11.6,6.8l-12-4.4c6.5-8.3,28.6-8.4,37.7-32.2.6-2.2.4-1.6.9-4.3"/>
        <path class="st0" d="M39.6,34.5c3.2-.5,6,.4,8,2.9,3.2,3.9,1.5,10.4-3.1,12.4-8.5,3.6-14.5-8.5-7.6-13.9.5-.4,2-1.3,2.7-1.4h0Z"/>
        <path class="st2" d="M50.1,48.8c1.6-1.5,4-4.6,4.8-6.5.2-.6.9-1.7,1.1-2.2.6-1.1.6.6.5,1-1.5,5.3-3.6,9.7-6.2,11.4-5.6,3.6-6.9,3.2-9.9,3.2-.7,0-3.6-.7-4.2-.9-2.3-.8-4.6-3.6-5.1-4.1-1.6-1.8-3.9-7.8-4.6-10.8-.1-.4.6-.7.8,0,0,.2.7,1.7.9,2.1,2.5,5,5.8,8.4,11.4,9.6,3.2.7,8-.5,10.5-2.8Z"/>
        <path class="st3" d="M35.8,68.2c.5-.1,1.4.5,1.9.8,3.6,2.5,5.7,1.7,8.2.8.7-.2,2-1.1,1.3.9-.4,1.2-2.2,3.1-3.4,3.5-3.2,1.1-5.6,0-7.3-2.7-.3-.5-1.7-3.1-.8-3.4h0Z"/>
      </g>
    </g>
  </g>
</svg>