<?xml version="1.0" encoding="UTF-8"?>
<svg id="Layer_2" xmlns="http://www.w3.org/2000/svg" xmlns:xlink="http://www.w3.org/1999/xlink" version="1.1" viewBox="0 0 197.3 95.3">
  <!-- Generator: Adobe Illustrator 29.7.1, SVG Export Plug-In . SVG Version: 2.1.1 Build 8)  -->
  <defs>
    <style>
      .st0 {
        fill: url(#linear-gradient2);
      }

      .st1 {
        fill: url(#linear-gradient1);
      }

      .st2 {
        fill: url(#linear-gradient3);
      }

      .st3 {
        fill: url(#linear-gradient4);
      }

      .st4 {
        fill: url(#linear-gradient);
      }

      .st5 {
        fill: #1fb6a6;
      }

      .st6 {
        fill: #0077b6;
      }
    </style>
    <linearGradient id="linear-gradient" x1="1.2" y1="65.1" x2="57.6" y2="65.1" gradientTransform="translate(0 98) scale(1 -1)" gradientUnits="userSpaceOnUse">
      <stop offset="0" stop-color="#1fb6a6"/>
      <stop offset="1" stop-color="#0077b6"/>
    </linearGradient>
    <linearGradient id="linear-gradient1" x1="26.9" y1="63.1" x2="69.4" y2="63.1" gradientTransform="translate(0 98) scale(1 -1)" gradientUnits="userSpaceOnUse">
      <stop offset="0" stop-color="#1fb6a6"/>
      <stop offset="1" stop-color="#0077b6"/>
    </linearGradient>
    <linearGradient id="linear-gradient2" x1="28.6" y1="68.1" x2="42.2" y2="68.1" gradientTransform="translate(0 98) scale(1 -1)" gradientUnits="userSpaceOnUse">
      <stop offset="0" stop-color="#1fb6a6"/>
      <stop offset="1" stop-color="#0077b6"/>
    </linearGradient>
    <linearGradient id="linear-gradient3" x1="22.1" y1="63.5" x2="48.6" y2="63.5" gradientTransform="translate(0 98) scale(1 -1)" gradientUnits="userSpaceOnUse">
      <stop offset="0" stop-color="#1fb6a6"/>
      <stop offset="1" stop-color="#0077b6"/>
    </linearGradient>
    <linearGradient id="linear-gradient4" x1="30" y1="42.4" x2="40.6" y2="42.4" gradientTransform="translate(0 98) scale(1 -1)" gradientUnits="userSpaceOnUse">
      <stop offset="0" stop-color="#1fb6a6"/>
      <stop offset="1" stop-color="#0077b6"/>
    </linearGradient>
  </defs>
  <g id="Layer_1-2">
    <g>
      <g>
        <path class="st5" d="M107.2,16.6c1.2-1.6,1.9-3.5,1.9-5.8s-.4-3.6-1.1-4.9c-.7-1.3-1.7-2.4-2.9-3.2-1.2-.8-2.6-1.4-4.2-1.7-1.6-.3-3.1-.5-4.8-.5h-12.9v33.9h8v-13.5h2.8l7.4,13.5h9.6l-8.8-14.5c2.2-.7,3.9-1.8,5.2-3.4h0ZM100.4,13c-.4.5-.8,1-1.4,1.2s-1.2.5-1.9.6c-.7.1-1.4.2-2.1.2h-3.9v-7.9h4.4c.6,0,1.2,0,1.9.1s1.2.3,1.8.6c.5.3,1,.6,1.3,1.1.3.5.5,1.1.5,1.9s-.2,1.6-.6,2.1Z"/>
        <path class="st5" d="M136.1,13c-.7-.9-1.6-1.6-2.7-2.2s-2.5-.9-4.1-.9-3.1.4-4.3,1.1c-1.2.8-2,1.6-2.6,2.6h0V0h-7.8v34.4h7.8v-12.9c0-1.4.4-2.6,1.1-3.6.7-1,1.8-1.5,3.2-1.5s1.3.1,1.7.4c.4.3.8.6,1.1,1.1.3.5.5,1,.6,1.6.1.6.1,1.2.1,1.9v12.9h7.9v-14.7c0-1.2-.1-2.4-.5-3.5-.3-1.2-.8-2.2-1.5-3.1h0Z"/>
        <path class="st5" d="M164.3,13.3c-1.1-1.1-2.3-2-3.8-2.6s-3.1-.9-4.8-.9-3.5.3-5.1.9c-1.6.6-2.9,1.5-4.1,2.6s-2.1,2.4-2.7,4-1,3.3-1,5.3.3,3.8,1,5.4c.7,1.6,1.6,2.9,2.8,4,1.2,1.1,2.6,1.9,4.2,2.4,1.6.6,3.3.8,5.1.8s4.6-.4,6.4-1.3c1.8-.9,3.3-2.1,4.4-3.8l-5.5-3.5c-.5.7-1.2,1.3-2.1,1.8-.9.5-1.9.7-3.2.7s-1.4-.1-2-.3-1.2-.5-1.8-.9-1-.9-1.3-1.4c-.3-.5-.5-1.1-.6-1.8h17.3c0-.3,0-.6,0-.9v-1c0-2-.3-3.9-.9-5.5-.6-1.6-1.4-2.9-2.5-4.1h0ZM150.3,19.8c0-.6.2-1.2.5-1.8s.7-1,1.1-1.5c.5-.4,1-.7,1.7-1s1.3-.4,2.1-.4c1.6,0,2.7.4,3.5,1.3s1.2,2,1.2,3.2h-10.1Z"/>
        <path class="st5" d="M192.9,16.8c-.4-1.6-1-2.9-1.9-3.9-.9-1-2-1.8-3.4-2.3s-3.1-.7-5.1-.7-3.9.3-5.7,1-3.5,1.7-4.9,3l4,4.3c.7-.7,1.6-1.2,2.7-1.7s2.1-.7,3.2-.7,2.2.3,3.1.8,1.2,1.4,1.2,2.6v.4c-1.7,0-3.5.1-5.3.3-1.8.2-3.5.6-4.9,1.1s-2.7,1.4-3.6,2.4c-.9,1-1.4,2.4-1.4,4.2s.3,2.6.8,3.5c.5,1,1.2,1.7,2.1,2.3s1.8,1,2.8,1.2,2,.4,3,.4c1.4,0,2.8-.3,4-.8s2.1-1.3,2.8-2.3h.1v2.5h7.2v-12c0-2.2-.2-4-.6-5.6h0ZM186.3,24.9c0,1.5-.4,2.7-1.3,3.6s-2.1,1.3-3.7,1.3-.8,0-1.2-.1-.8-.2-1.1-.4-.6-.5-.8-.8c-.2-.3-.3-.7-.3-1.1,0-.7.2-1.3.7-1.7s1-.8,1.7-1,1.5-.4,2.3-.5c.9,0,1.8-.1,2.6-.1h1v.8h0Z"/>
      </g>
      <g>
        <polygon class="st6" points="101.2 53.7 85.9 53.7 85.9 41.5 83 41.5 83 69.7 85.9 69.7 85.9 56.3 101.2 56.3 101.2 69.7 104.1 69.7 104.1 41.5 101.2 41.5 101.2 53.7"/>
        <path class="st6" d="M126.1,53.3c-.7-.8-1.7-1.5-2.8-2s-2.4-.7-3.9-.7-2.6.2-3.7.7c-1.1.5-2.1,1.2-3,2-.8.9-1.5,1.9-2,3.1-.5,1.2-.7,2.5-.7,3.9s.2,2.7.7,3.9c.5,1.2,1.2,2.2,2,3.1s1.9,1.6,3,2c1.2.5,2.5.7,3.8.7s3-.3,4.3-.9c1.3-.6,2.6-1.6,3.7-3l-2-1.6c-.5.8-1.3,1.6-2.3,2.2-1,.6-2.2,1-3.6,1s-1.8-.2-2.7-.5c-.8-.4-1.5-.8-2.1-1.5-.6-.6-1.1-1.3-1.4-2.1-.3-.8-.5-1.7-.6-2.6h15.4c0-.2,0-.5,0-.7v-.6c0-1.3-.2-2.5-.6-3.6-.4-1.1-.9-2.1-1.7-2.9ZM112.9,58.9c0-.8.3-1.6.6-2.3.3-.7.8-1.4,1.4-1.9.6-.6,1.3-1,2-1.4.8-.3,1.6-.5,2.5-.5,1.9,0,3.4.6,4.5,1.7,1,1.2,1.6,2.6,1.7,4.3h-12.7Z"/>
        <path class="st6" d="M148.2,65.5v-8.1c0-1.1-.2-2.1-.6-3s-.9-1.5-1.5-2.1c-.7-.6-1.4-1-2.3-1.3s-1.8-.4-2.8-.4c-1.6,0-3,.3-4.3.8-1.3.5-2.3,1.1-3,1.9l1.5,1.8c.7-.7,1.5-1.2,2.4-1.6,1-.4,2-.6,3.1-.6,1.6,0,2.8.4,3.7,1.2.8.8,1.3,2,1.3,3.6v.6c-1.7,0-3.3,0-4.9.2-1.6.1-3,.4-4.2.8-1.2.4-2.2,1-2.9,1.9s-1.1,2-1.1,3.4.2,1.9.6,2.6c.4.7.9,1.3,1.5,1.8.6.5,1.3.8,2.1,1s1.5.3,2.2.3c1.5,0,2.8-.3,3.9-.8,1.1-.5,2-1.4,2.9-2.7h0c0,.5,0,1,0,1.5,0,.5.1,1,.2,1.5h2.4c-.1-.5-.2-1.2-.2-1.9,0-.8,0-1.5,0-2.2ZM145.6,61.7c0,.8-.1,1.6-.4,2.3-.3.7-.6,1.4-1.2,2-.5.6-1.1,1-1.9,1.4-.7.3-1.6.5-2.5.5s-1.1,0-1.6-.2-1-.3-1.4-.6c-.4-.3-.8-.6-1-1.1-.3-.5-.4-1-.4-1.7s.3-1.6.9-2.1c.6-.5,1.3-.9,2.2-1.2s1.9-.5,3.1-.6c1.1,0,2.2-.1,3.4-.1h.8v1.4Z"/>
        <rect class="st6" x="155.2" y="39.6" width="2.7" height="30"/>
        <path class="st6" d="M168.3,45.8h-2.7v5.2h-3.9v2.3h3.9v11.6c0,1,.2,1.9.5,2.5.3.6.7,1.1,1.2,1.5s1,.6,1.5.8c.6.1,1.1.2,1.6.2s1.2,0,1.7-.1c.5,0,1-.2,1.5-.4v-2.3c-.5.2-.9.3-1.3.4-.4.1-.8.2-1.2.2s-.8,0-1.1-.1c-.3,0-.6-.3-.9-.5-.3-.3-.4-.6-.6-1.1-.1-.5-.2-1-.2-1.7v-10.8h5.2v-2.3h-5.2v-5.2Z"/>
        <path class="st6" d="M192.1,52.7c-1.2-1.4-2.9-2.1-5.3-2.1s-2.6.3-3.7,1c-1.2.6-2,1.5-2.5,2.6h0v-14.5h-2.7v30h2.7v-9.5c0-1.2.2-2.3.5-3.2.3-.9.7-1.7,1.3-2.3.5-.6,1.1-1,1.8-1.3.7-.3,1.4-.4,2.1-.4s1.8.2,2.4.5c.6.3,1.2.8,1.5,1.3.4.6.7,1.3.8,2,.2.8.2,1.7.2,2.7v10.3h2.7v-11.4c0-2.3-.6-4.2-1.8-5.6Z"/>
      </g>
      <g>
        <path d="M4.9,85.8h0c.5-.1.8-.3,1.1-.7s.4-.7.4-1.2,0-.8-.2-1.1c-.2-.3-.4-.5-.6-.7s-.6-.3-.9-.3c-.3,0-.7-.1-1-.1H1.1v8.5h2.5c.5,0,.9,0,1.3-.2s.7-.3,1-.5.5-.5.6-.7c.1-.3.2-.6.2-1,0-.6-.2-1.1-.5-1.5-.4-.4-.8-.6-1.4-.6ZM2,82.5h1.5c.3,0,.5,0,.8,0,.2,0,.5.1.7.3.2.1.3.3.4.5.1.2.2.4.2.7s0,.5-.2.7c-.1.2-.3.3-.4.5-.2.1-.4.2-.6.2-.2,0-.4,0-.6,0h-1.7v-3ZM5.8,88.7c-.1.2-.3.4-.5.5s-.5.2-.7.3c-.3,0-.6,0-.9,0h-1.6v-3.3h1.8c.7,0,1.2.1,1.6.4.4.3.6.7.6,1.3s0,.6-.2.8Z"/>
        <path d="M13.6,89.1v-4.4h-.8v2.9c0,.4,0,.7-.1,1,0,.3-.2.5-.4.7-.2.2-.3.3-.5.4-.2,0-.4.1-.6.1s-.5,0-.7-.1c-.2,0-.4-.2-.5-.4-.1-.2-.2-.4-.2-.6s0-.5,0-.8v-3.1h-.8v3.5c0,.7.2,1.3.5,1.7.4.4.9.6,1.6.6s.8-.1,1.1-.3.6-.5.8-.8h0c0,.1,0,.3,0,.5,0,.2,0,.4,0,.5h.8c0-.2,0-.4,0-.7,0-.2,0-.4,0-.6Z"/>
        <path d="M16.2,81.9c-.1,0-.3,0-.4.2-.1.1-.2.2-.2.4s0,.3.2.4c.1.1.3.2.4.2s.3,0,.4-.2c.1-.1.2-.2.2-.4s0-.3-.2-.4c-.1-.1-.3-.2-.4-.2Z"/>
        <rect x="15.8" y="84.7" width=".8" height="5.6"/>
        <rect x="18.8" y="81.2" width=".8" height="9.1"/>
        <path d="M26.5,85.6h0c-.2-.4-.6-.6-.9-.8-.4-.2-.8-.3-1.2-.3s-.8,0-1.2.2c-.4.2-.7.4-.9.6-.3.3-.5.6-.6.9-.1.4-.2.8-.2,1.2s0,.8.2,1.2c.1.4.3.7.6.9.3.3.6.5.9.6.4.2.8.2,1.2.2s.8,0,1.2-.3c.4-.2.7-.5.9-.8h0v1h.8v-9.1h-.8v4.5ZM26.4,88.4c-.1.3-.3.5-.5.7s-.4.4-.7.5c-.3.1-.6.2-.9.2s-.6,0-.9-.2c-.3-.1-.5-.3-.7-.5-.2-.2-.3-.4-.4-.7,0-.3-.1-.6-.1-.9s0-.6.1-.9c0-.3.2-.5.4-.7.2-.2.4-.4.7-.5.3-.1.6-.2.9-.2s.6,0,.9.2c.3.1.5.3.7.5s.3.4.5.7c.1.3.2.6.2.9s0,.6-.2.9Z"/>
        <rect x="29.5" y="84.7" width=".8" height="5.6"/>
        <path d="M29.9,81.9c-.1,0-.3,0-.4.2-.1.1-.2.2-.2.4s0,.3.2.4c.1.1.3.2.4.2s.3,0,.4-.2c.1-.1.2-.2.2-.4s0-.3-.2-.4c-.1-.1-.3-.2-.4-.2Z"/>
        <path d="M35.3,84.5c-.4,0-.8.1-1.1.3s-.6.5-.8.8h0c0-.1,0-.3,0-.5,0-.2,0-.4,0-.5h-.8c0,.2,0,.4,0,.7s0,.4,0,.6v4.4h.8v-2.9c0-.4,0-.7.1-1,0-.3.2-.5.4-.7.2-.2.3-.3.5-.4.2,0,.4-.1.6-.1s.5,0,.7.1c.2,0,.4.2.5.4.1.2.2.4.2.6s0,.5,0,.8v3.1h.8v-3.5c0-.7-.2-1.3-.5-1.7-.4-.4-.9-.6-1.6-.6Z"/>
        <path d="M44.2,85.6h0c-.2-.4-.5-.6-.9-.8-.4-.2-.8-.3-1.2-.3s-.8,0-1.2.2c-.4.2-.7.4-.9.6-.3.3-.5.6-.6.9s-.2.7-.2,1.1,0,.8.2,1.1.3.7.6.9c.3.3.6.5.9.6.4.1.8.2,1.2.2s.8,0,1.2-.3c.4-.2.7-.5.9-.8h0v1.1c0,.3,0,.6-.1.9,0,.3-.2.5-.4.7s-.4.4-.7.5c-.3.1-.6.2-1,.2s-.8-.1-1.2-.3c-.4-.2-.7-.4-.9-.7l-.6.6c.3.4.7.6,1.2.8.5.2,1,.3,1.5.3s1.1,0,1.5-.3c.4-.2.7-.4.9-.7.2-.3.4-.6.5-1,0-.3.1-.7.1-1v-5.6h-.8v1ZM44.1,88.3c-.1.3-.3.5-.5.7-.2.2-.4.3-.7.4-.3.1-.6.2-.9.2s-.6,0-.9-.2c-.3-.1-.5-.3-.7-.5-.2-.2-.3-.4-.4-.7,0-.3-.1-.5-.1-.8s0-.6.1-.8c0-.3.2-.5.4-.7.2-.2.4-.4.7-.5.3-.1.6-.2.9-.2s.6,0,.9.2c.3.1.5.3.7.5.2.2.3.4.5.7.1.3.2.5.2.8s0,.6-.2.9Z"/>
        <path d="M54.5,89v-2.5c0-.3,0-.6-.2-.9-.1-.3-.3-.5-.5-.6-.2-.2-.4-.3-.7-.4-.3,0-.6-.1-.9-.1-.5,0-.9,0-1.3.2s-.7.3-.9.6l.5.5c.2-.2.4-.4.7-.5.3-.1.6-.2.9-.2.5,0,.9.1,1.1.4.3.2.4.6.4,1.1v.2c-.5,0-1,0-1.5,0-.5,0-.9.1-1.3.2-.4.1-.7.3-.9.6-.2.3-.3.6-.3,1s0,.6.2.8c.1.2.3.4.5.5.2.1.4.2.6.3s.5,0,.7,0c.5,0,.9,0,1.2-.2s.6-.4.9-.8h0c0,.2,0,.3,0,.5s0,.3,0,.4h.7c0-.2,0-.4,0-.6s0-.5,0-.7ZM53.7,87.9c0,.2,0,.5-.1.7,0,.2-.2.4-.3.6-.2.2-.3.3-.6.4s-.5.2-.8.2-.3,0-.5,0-.3,0-.4-.2c-.1,0-.2-.2-.3-.3,0-.1-.1-.3-.1-.5s0-.5.3-.6c.2-.2.4-.3.7-.4.3,0,.6-.1.9-.2.3,0,.7,0,1,0h.2v.4Z"/>
        <polygon points="65.2 85.5 60.5 85.5 60.5 81.8 59.7 81.8 59.7 90.3 60.5 90.3 60.5 86.3 65.2 86.3 65.2 90.3 66.1 90.3 66.1 81.8 65.2 81.8 65.2 85.5"/>
        <path d="M72.7,85.3c-.2-.3-.5-.5-.8-.6-.3-.1-.7-.2-1.2-.2s-.8,0-1.1.2c-.3.1-.6.4-.9.6-.3.3-.5.6-.6.9-.1.4-.2.8-.2,1.2s0,.8.2,1.2c.1.4.4.7.6.9.3.3.6.5.9.6.4.1.7.2,1.2.2s.9,0,1.3-.3c.4-.2.8-.5,1.1-.9l-.6-.5c-.2.3-.4.5-.7.7-.3.2-.7.3-1.1.3s-.6,0-.8-.2c-.2-.1-.5-.3-.7-.4-.2-.2-.3-.4-.4-.7-.1-.2-.2-.5-.2-.8h4.7c0,0,0-.1,0-.2v-.2c0-.4,0-.7-.2-1.1-.1-.3-.3-.6-.5-.9ZM68.7,87.1c0-.2,0-.5.2-.7.1-.2.2-.4.4-.6.2-.2.4-.3.6-.4.2-.1.5-.2.8-.2.6,0,1,.2,1.4.5.3.4.5.8.5,1.3h-3.8Z"/>
        <path d="M79.4,89v-2.5c0-.3,0-.6-.2-.9-.1-.3-.3-.5-.5-.6-.2-.2-.4-.3-.7-.4-.3,0-.6-.1-.9-.1-.5,0-.9,0-1.3.2s-.7.3-.9.6l.5.5c.2-.2.4-.4.7-.5.3-.1.6-.2.9-.2.5,0,.9.1,1.1.4.3.2.4.6.4,1.1v.2c-.5,0-1,0-1.5,0-.5,0-.9.1-1.3.2-.4.1-.7.3-.9.6-.2.3-.3.6-.3,1s0,.6.2.8c.1.2.3.4.5.5.2.1.4.2.6.3s.5,0,.7,0c.5,0,.9,0,1.2-.2s.6-.4.9-.8h0c0,.2,0,.3,0,.5s0,.3,0,.4h.7c0-.2,0-.4,0-.6s0-.5,0-.7ZM78.6,87.9c0,.2,0,.5-.1.7,0,.2-.2.4-.3.6-.2.2-.3.3-.6.4s-.5.2-.8.2-.3,0-.5,0-.3,0-.4-.2c-.1,0-.2-.2-.3-.3,0-.1-.1-.3-.1-.5s0-.5.3-.6c.2-.2.4-.3.7-.4.3,0,.6-.1.9-.2.3,0,.7,0,1,0h.2v.4Z"/>
        <rect x="81.5" y="81.2" width=".8" height="9.1"/>
        <path d="M85.5,83.1h-.8v1.6h-1.2v.7h1.2v3.5c0,.3,0,.6.1.8,0,.2.2.3.4.5.1.1.3.2.5.2.2,0,.3,0,.5,0s.4,0,.5,0,.3,0,.5-.1v-.7c-.1,0-.3.1-.4.1-.1,0-.2,0-.4,0s-.2,0-.3,0-.2,0-.3-.2c0,0-.1-.2-.2-.3,0-.1,0-.3,0-.5v-3.3h1.6v-.7h-1.6v-1.6Z"/>
        <path d="M91.1,84.5c-.4,0-.8,0-1.1.3-.4.2-.6.5-.8.8h0v-4.4h-.8v9.1h.8v-2.9c0-.4,0-.7.1-1,0-.3.2-.5.4-.7.2-.2.3-.3.5-.4.2,0,.4-.1.6-.1s.5,0,.7.1c.2,0,.4.2.5.4s.2.4.2.6c0,.2,0,.5,0,.8v3.1h.8v-3.5c0-.7-.2-1.3-.5-1.7s-.9-.6-1.6-.6Z"/>
        <path d="M97.4,89.4h0l-1.9-4.8h-.9l2.4,5.6-.5,1.2c-.1.3-.3.6-.4.7-.2.2-.4.3-.7.3s-.4,0-.6,0v.7c.2,0,.4,0,.7,0,.5,0,.9-.1,1.1-.4.3-.3.5-.6.6-1l2.8-7.1h-.9l-1.7,4.8Z"/>
        <polygon points="104.3 90.3 105.2 90.3 105.2 86.3 109.2 86.3 109.2 85.5 105.2 85.5 105.2 82.5 109.5 82.5 109.5 81.8 104.3 81.8 104.3 90.3"/>
        <path d="M115.4,89.1v-4.4h-.8v2.9c0,.4,0,.7-.1,1s-.2.5-.4.7c-.2.2-.3.3-.5.4-.2,0-.4.1-.6.1s-.5,0-.7-.1-.4-.2-.5-.4c-.1-.2-.2-.4-.2-.6,0-.2,0-.5,0-.8v-3.1h-.8v3.5c0,.7.2,1.3.5,1.7.4.4.9.6,1.6.6s.8-.1,1.1-.3c.4-.2.6-.5.8-.8h0c0,.1,0,.3,0,.5,0,.2,0,.4,0,.5h.8c0-.2,0-.4,0-.7s0-.4,0-.6Z"/>
        <path d="M118.5,83.1h-.8v1.6h-1.2v.7h1.2v3.5c0,.3,0,.6.1.8,0,.2.2.3.4.5s.3.2.5.2c.2,0,.3,0,.5,0s.4,0,.5,0c.2,0,.3,0,.5-.1v-.7c-.1,0-.3.1-.4.1-.1,0-.2,0-.4,0s-.2,0-.3,0-.2,0-.3-.2-.1-.2-.2-.3,0-.3,0-.5v-3.3h1.6v-.7h-1.6v-1.6Z"/>
        <path d="M126.2,89.1v-4.4h-.8v2.9c0,.4,0,.7-.1,1,0,.3-.2.5-.4.7-.2.2-.3.3-.5.4-.2,0-.4.1-.6.1s-.5,0-.7-.1c-.2,0-.4-.2-.5-.4-.1-.2-.2-.4-.2-.6,0-.2,0-.5,0-.8v-3.1h-.8v3.5c0,.7.2,1.3.5,1.7.4.4.9.6,1.6.6s.8-.1,1.1-.3c.4-.2.6-.5.8-.8h0c0,.1,0,.3,0,.5,0,.2,0,.4,0,.5h.8c0-.2,0-.4,0-.7,0-.2,0-.4,0-.6Z"/>
        <path d="M131,84.5c-.4,0-.8.1-1.1.3s-.6.5-.7.8h0c0-.1,0-.3,0-.5,0-.2,0-.4,0-.5h-.8c0,.2,0,.4,0,.7s0,.4,0,.6v4.4h.8v-2.9c0-.4,0-.7.1-1,0-.3.2-.5.4-.7s.3-.3.5-.4.4-.1.6-.1.2,0,.3,0c.1,0,.2,0,.2,0v-.8s0,0-.2,0c0,0-.2,0-.3,0Z"/>
        <path d="M137,85.3c-.2-.3-.5-.5-.8-.6-.3-.1-.7-.2-1.2-.2s-.8,0-1.1.2c-.3.1-.6.4-.9.6-.3.3-.5.6-.6.9s-.2.8-.2,1.2,0,.8.2,1.2c.1.4.4.7.6.9.3.3.6.5.9.6.4.1.7.2,1.2.2s.9,0,1.3-.3.8-.5,1.1-.9l-.6-.5c-.2.3-.4.5-.7.7-.3.2-.7.3-1.1.3s-.6,0-.8-.2-.5-.3-.7-.4c-.2-.2-.3-.4-.4-.7-.1-.2-.2-.5-.2-.8h4.7c0,0,0-.1,0-.2v-.2c0-.4,0-.7-.2-1.1-.1-.3-.3-.6-.5-.9ZM133,87.1c0-.2,0-.5.2-.7.1-.2.2-.4.4-.6.2-.2.4-.3.6-.4s.5-.2.8-.2c.6,0,1,.2,1.4.5.3.4.5.8.5,1.3h-3.8Z"/>
        <polygon points="138.9 92 139.5 92 140.5 89.2 139.7 89.2 138.9 92"/>
        <polygon points="150.5 81.8 144 81.8 144 82.5 146.8 82.5 146.8 90.3 147.7 90.3 147.7 82.5 150.5 82.5 150.5 81.8"/>
        <path d="M155.4,85.4c-.3-.3-.6-.5-1-.6-.4-.1-.8-.2-1.2-.2s-.8,0-1.2.2c-.4.1-.7.4-1,.6-.3.3-.5.6-.6.9-.1.4-.2.8-.2,1.2s0,.8.2,1.2c.1.4.4.7.6.9s.6.5,1,.6c.4.1.8.2,1.2.2s.8,0,1.2-.2c.4-.1.7-.4,1-.6s.5-.6.6-.9c.1-.4.2-.8.2-1.2s0-.8-.2-1.2-.4-.7-.6-.9ZM155.2,88.4c-.1.3-.2.5-.4.7-.2.2-.4.4-.7.5-.3.1-.6.2-.9.2s-.6,0-.9-.2c-.3-.1-.5-.3-.7-.5-.2-.2-.3-.4-.4-.7s-.2-.6-.2-.9,0-.6.2-.9.2-.5.4-.7c.2-.2.4-.4.7-.5.3-.1.6-.2.9-.2s.6,0,.9.2c.3.1.5.3.7.5.2.2.3.4.4.7s.2.6.2.9,0,.6-.2.9Z"/>
        <path d="M162.7,85.6h0c-.2-.4-.5-.6-.9-.8-.4-.2-.8-.3-1.2-.3s-.8,0-1.2.2c-.4.2-.7.4-.9.6s-.5.6-.6.9-.2.7-.2,1.1,0,.8.2,1.1.3.7.6.9c.3.3.6.5.9.6.4.1.8.2,1.2.2s.8,0,1.2-.3c.4-.2.7-.5.9-.8h0v1.1c0,.3,0,.6-.1.9,0,.3-.2.5-.4.7s-.4.4-.7.5c-.3.1-.6.2-1,.2s-.8-.1-1.2-.3-.7-.4-.9-.7l-.6.6c.3.4.7.6,1.2.8.5.2,1,.3,1.5.3s1.1,0,1.5-.3c.4-.2.7-.4.9-.7.2-.3.4-.6.5-1s.1-.7.1-1v-5.6h-.8v1ZM162.6,88.3c-.1.3-.3.5-.5.7s-.4.3-.7.4-.6.2-.9.2-.6,0-.9-.2c-.3-.1-.5-.3-.7-.5s-.3-.4-.4-.7c0-.3-.1-.5-.1-.8s0-.6.1-.8c0-.3.2-.5.4-.7.2-.2.4-.4.7-.5.3-.1.6-.2.9-.2s.6,0,.9.2c.3.1.5.3.7.5.2.2.3.4.5.7.1.3.2.5.2.8s0,.6-.2.9Z"/>
        <path d="M170.1,85.3c-.2-.3-.5-.5-.8-.6-.3-.1-.7-.2-1.2-.2s-.8,0-1.1.2c-.3.1-.6.4-.9.6-.3.3-.5.6-.6.9-.1.4-.2.8-.2,1.2s0,.8.2,1.2c.1.4.4.7.6.9.3.3.6.5.9.6.4.1.7.2,1.2.2s.9,0,1.3-.3c.4-.2.8-.5,1.1-.9l-.6-.5c-.2.3-.4.5-.7.7-.3.2-.7.3-1.1.3s-.6,0-.8-.2c-.2-.1-.5-.3-.7-.4-.2-.2-.3-.4-.4-.7-.1-.2-.2-.5-.2-.8h4.7c0,0,0-.1,0-.2v-.2c0-.4,0-.7-.2-1.1s-.3-.6-.5-.9ZM166.1,87.1c0-.2,0-.5.2-.7.1-.2.2-.4.4-.6.2-.2.4-.3.6-.4.2-.1.5-.2.8-.2.6,0,1,.2,1.4.5.3.4.5.8.5,1.3h-3.8Z"/>
        <path d="M173.5,83.1h-.8v1.6h-1.2v.7h1.2v3.5c0,.3,0,.6.1.8,0,.2.2.3.4.5.1.1.3.2.5.2s.3,0,.5,0,.4,0,.5,0c.2,0,.3,0,.5-.1v-.7c-.1,0-.3.1-.4.1-.1,0-.2,0-.4,0s-.2,0-.3,0-.2,0-.3-.2c0,0-.1-.2-.2-.3,0-.1,0-.3,0-.5v-3.3h1.6v-.7h-1.6v-1.6Z"/>
        <path d="M179.1,84.5c-.4,0-.8,0-1.1.3-.4.2-.6.5-.8.8h0v-4.4h-.8v9.1h.8v-2.9c0-.4,0-.7.1-1,0-.3.2-.5.4-.7.2-.2.3-.3.5-.4.2,0,.4-.1.6-.1s.5,0,.7.1c.2,0,.4.2.5.4.1.2.2.4.2.6s0,.5,0,.8v3.1h.8v-3.5c0-.7-.2-1.3-.5-1.7-.4-.4-.9-.6-1.6-.6Z"/>
        <path d="M187.8,85.3c-.2-.3-.5-.5-.8-.6-.3-.1-.7-.2-1.2-.2s-.8,0-1.1.2c-.3.1-.6.4-.9.6-.3.3-.5.6-.6.9-.1.4-.2.8-.2,1.2s0,.8.2,1.2c.1.4.4.7.6.9.3.3.6.5.9.6.4.1.7.2,1.2.2s.9,0,1.3-.3c.4-.2.8-.5,1.1-.9l-.6-.5c-.2.3-.4.5-.7.7-.3.2-.7.3-1.1.3s-.6,0-.8-.2c-.2-.1-.5-.3-.7-.4-.2-.2-.3-.4-.4-.7-.1-.2-.2-.5-.2-.8h4.7c0,0,0-.1,0-.2v-.2c0-.4,0-.7-.2-1.1s-.3-.6-.5-.9ZM183.8,87.1c0-.2,0-.5.2-.7.1-.2.2-.4.4-.6.2-.2.4-.3.6-.4.2-.1.5-.2.8-.2.6,0,1,.2,1.4.5.3.4.5.8.5,1.3h-3.8Z"/>
        <path d="M193.2,84.5c0,0-.2,0-.3,0-.4,0-.8.1-1.1.3-.3.2-.6.5-.7.8h0c0-.1,0-.3,0-.5,0-.2,0-.4,0-.5h-.8c0,.2,0,.4,0,.7s0,.4,0,.6v4.4h.8v-2.9c0-.4,0-.7.1-1,0-.3.2-.5.4-.7.1-.2.3-.3.5-.4.2,0,.4-.1.6-.1s.2,0,.3,0c.1,0,.2,0,.2,0v-.8s0,0-.2,0Z"/>
      </g>
      <g>
        <path class="st4" d="M30.5,13.3c0,0-.3.7-.4.9-.9,1.7-2.4,2.7-2.7,4.6,0,.6,0,1.9-.3,2.4-.5.8-1.2.2-1.8.4-.6,2.6-2.6-.8-2.6,2.4s-1,1.7-2.5,1.4c-1.2-.3-2-1.7-2.9-2.2-1.3-.8-1.7,1.7-1.8,2.5-.5,6,4,10.7,8.7,13.6,8.4,5.2,21.2,5.2,30.1,1.2.9-.4,1.7-.7,2.7-1.1.5-.2.4.4.2.6-.1.1-1.4,2.3-1.6,2.6-2.7,4.7-7.4,8.9-12.9,9.8-1.8.3-3.8.4-5.5.4-.7,0-2.9,0-4.2-.2-1.8-.2-2.8-.3-5.1-1-.3,0-.6-.3-.5-.7.3-.4,1.4,0,1.7,0,2.9.2,4.6.1,7.4-.4.8-.2,3-.6,3.5-1.5-1.1.1-1.2.2-2.6.5-2.7.5-3.9.6-6.9.3-11.5-1.2-17.9-7.6-21.2-16.7-.3-.9-.9-1.6-1.2-2.6,0,.9.1,1.8.4,2.6.7,2.6,1.8,5.6,3.1,8,4.7,8.8,13.4,14.5,21.5,20,1,.6,0,.8-.4,1.1-.9.7-2.2,1.3-3.2,2-.5.4-2.1,1.7-2.6,1.7-.2,0-.3,0-.5-.2-1-.4-2.6-1.5-3.5-2C10.6,56.2-1.5,44.6,1.8,28.9c1-4.5,2.9-7.4,4.9-11.4,3.2-6.1,2.8-13.3,10.1-16.5,3.2-1.4,6.9-1.2,9.9.6,2.1,1.3,6.2,5.2,6.7,7.6.3,1.6,0,3.2-1.6,3.8-.3,0-1,.1-1.2.3h0Z"/>
        <path class="st1" d="M61,33.5c-.6,1.7-1,2.5-2.6,3.5-4.2,2.4-8,3.6-12.8,4.3-1.3.2-1.2.4-4.8.5-.2,0-1.5-.2-1.5-.3,0-.1.2-.4.3-.4,4.1-.8,8.4-2.7,11.5-5.5,2.7-2.5,5-7.8,3.9-11.4-.9-3.2-2.5-.2-3.8.6-1.8,1.1-2.5-.3-3.7-1.4-.3-.2-.6-.4-.9-.7-.3-.2-.5-.7-.8-.8-.7-.4-2,.4-2.2-.8-.2-1.1,0-2.3-.5-3.4-.3-.7-.9-1-1.4-1.6-.6-.7-1.2-1.3-1.7-2-.3-.4-1.9-2-1.5-2.4.7,0,1.3.7,1.9,1.1,5.2,3.2,11.3-.5,15.5,5.2.7.9,1.5,2.4,1.9,3.5.2.4.2,1.4.5,1.7.1.1.2,0,.3,0,.3-.5.2-1,0-1.6-.8-2.8-2.8-5.8-5.5-7-4.6-2.1-10.1,0-13.9-4.1-1.3-1.4-1.4-2.3-.3-3.8,3.5-4.6,8.7-8.1,14.7-5.6,7.4,3.1,7.2,10.3,10.2,16.3,1.8,3.7,4,6.5,4.9,10.6,3.8,16.7-8.2,27.8-21,35.8-5.5,3.5-4.7,2.6-10.3,6l-10.6-3.9c5.7-7.3,25.2-7.5,33.3-28.5.6-1.9.4-1.4.8-3.8"/>
        <path class="st0" d="M33.6,22.9c2.8-.5,5.3.3,7.1,2.6,2.8,3.4,1.4,9.2-2.7,10.9-7.5,3.2-12.8-7.5-6.7-12.3.5-.4,1.8-1.1,2.3-1.2Z"/>
        <path class="st2" d="M42.9,35.6c1.4-1.3,3.5-4.1,4.3-5.8.2-.5.8-1.5,1-1.9.5-.9.5.6.4.9-1.4,4.7-3.2,8.6-5.5,10-5,3.2-6.1,2.8-8.7,2.9-.6,0-3.2-.7-3.7-.8-2.1-.7-4.1-3.2-4.5-3.6-1.5-1.5-3.5-6.9-4.1-9.5,0-.4.5-.6.7,0,0,.2.6,1.5.8,1.8,2.2,4.4,5.1,7.4,10.1,8.5,2.9.6,7.1-.4,9.2-2.4h0Z"/>
        <path class="st3" d="M30.3,52.7c.4-.1,1.2.4,1.7.7,3.1,2.3,5,1.5,7.3.8.6-.2,1.8-1,1.2.8-.3,1-2,2.7-3,3.1-2.8,1-5,0-6.4-2.4-.3-.5-1.5-2.7-.7-3Z"/>
      </g>
    </g>
  </g>
</svg>